<svg width="12" height="13" viewBox="0 0 12 13" fill="none" xmlns="http://www.w3.org/2000/svg">
<path fill-rule="evenodd" clip-rule="evenodd" d="M6.00001 0.961548C2.93078 0.961548 0.461548 3.43078 0.461548 6.50001C0.461548 9.56924 2.93078 12.0385 6.00001 12.0385C9.06924 12.0385 11.5385 9.56924 11.5385 6.50001C11.5385 3.43078 9.06924 0.961548 6.00001 0.961548ZM6.00001 10.6539C3.69232 10.6539 1.84616 8.8077 1.84616 6.50001C1.84616 4.19232 3.69232 2.34616 6.00001 2.34616C8.3077 2.34616 10.1539 4.19232 10.1539 6.50001C10.1539 8.8077 8.3077 10.6539 6.00001 10.6539ZM7.15386 8.60001C7.15386 8.71539 7.06155 8.8077 6.92309 8.8077H5.07693C4.96155 8.8077 4.84616 8.73847 4.84616 8.60001V8.13847C4.84616 8.02309 4.93847 7.88463 5.07693 7.88463C5.19232 7.88463 5.3077 7.81539 5.3077 7.67693V6.75386C5.3077 6.63847 5.21539 6.50001 5.07693 6.50001C4.96155 6.50001 4.84616 6.43078 4.84616 6.29232V5.83078C4.84616 5.71539 4.93847 5.57693 5.07693 5.57693H6.46155C6.57693 5.57693 6.69232 5.69232 6.69232 5.83078V7.67693C6.69232 7.79232 6.78463 7.88463 6.92309 7.88463C7.03847 7.88463 7.15386 8.00001 7.15386 8.13847V8.60001ZM6.00001 3.75386C6.39232 3.75386 6.69232 4.05386 6.69232 4.44617C6.69232 4.83848 6.39232 5.13848 6.00001 5.13848C5.6077 5.13848 5.3077 4.83848 5.3077 4.44617C5.3077 4.05386 5.6077 3.75386 6.00001 3.75386Z" fill="#16325C"/>
</svg>
