<svg width="16" height="16" viewBox="0 0 16 16" fill="none" xmlns="http://www.w3.org/2000/svg">
<path fill-rule="evenodd" clip-rule="evenodd" d="M13.5385 5.90771C13.5385 5.23079 12.9847 4.67694 12.3077 4.67694H12.0923C11.9385 2.58463 10.1847 0.923096 8.03081 0.923096C5.87696 0.923096 4.15388 2.58463 3.96927 4.67694H3.69235C3.01542 4.67694 2.46158 5.23079 2.46158 5.90771L1.84619 13.6C1.84619 14.2769 2.40004 14.8308 3.07696 14.8308H12.9231C13.6 14.8308 14.1539 14.2769 14.1539 13.6L13.5385 5.90771ZM9.78462 8.36926H6.21538C5.69231 8.36926 5.29231 7.93849 5.29231 7.44618C5.29231 6.95387 5.72308 6.52311 6.21538 6.52311H9.81538C10.3385 6.52311 10.7385 6.95387 10.7385 7.44618C10.7385 7.93849 10.3077 8.36926 9.78462 8.36926ZM8.03073 2.76925C9.16919 2.76925 10.0923 3.60002 10.2461 4.67694H5.81535C5.99996 3.60002 6.92304 2.76925 8.03073 2.76925V2.76925Z" fill="#F7A452"/>
</svg>
