<svg width="16" height="16" viewBox="0 0 16 16" fill="none" xmlns="http://www.w3.org/2000/svg">
<path fill-rule="evenodd" clip-rule="evenodd" d="M11.8154 9.99997C11.3231 10.3077 10.8 10.3384 10.4308 10.4307C10.3077 10.4615 10.1231 10.4923 10.0616 10.4923C10 10.523 9.87696 10.6154 9.81542 10.6769C9.5385 10.8615 9.20004 11.1692 8.7385 11.323L11.6308 15.3846L12.3693 13.4154H14.3385L11.8154 9.99997ZM7.13857 11.2923L4.24627 15.3846L3.5078 13.4154H1.53857L4.06165 9.99997C4.55396 10.3077 5.07704 10.3384 5.44627 10.4307C5.56934 10.4615 5.72319 10.4923 5.78473 10.4923C5.84627 10.523 5.96934 10.6154 6.03088 10.6769C6.3078 10.8615 6.67704 11.1384 7.13857 11.2923ZM7.93854 3.56921C6.98469 3.56921 6.21546 4.33844 6.21546 5.29228C6.21546 6.24613 6.98469 7.01536 7.93854 7.01536C8.89238 7.01536 9.66161 6.24613 9.66161 5.29228C9.66161 4.33844 8.89238 3.56921 7.93854 3.56921ZM12.6156 5.29228C12.6156 5.87689 11.9694 6.33843 11.754 6.86151C11.5386 7.41536 11.6617 8.18459 11.231 8.58459C10.831 8.98459 10.0617 8.89228 9.50788 9.10766C8.9848 9.32305 8.52326 9.9692 7.93865 9.9692C7.35403 9.9692 6.8925 9.32305 6.36942 9.10766C5.81557 8.89228 5.04634 9.01536 4.64634 8.58459C4.24634 8.18459 4.33865 7.41536 4.12326 6.86151C3.90788 6.33843 3.26173 5.87689 3.26173 5.29228C3.26173 4.70766 3.90788 4.24613 4.12326 3.72305C4.33865 3.1692 4.21557 2.39997 4.64634 1.99997C5.04634 1.59997 5.81557 1.69228 6.36942 1.47689C6.8925 1.26151 7.35403 0.615356 7.93865 0.615356C8.52326 0.615356 8.9848 1.26151 9.50788 1.47689C10.0617 1.69228 10.831 1.5692 11.231 1.99997C11.631 2.39997 11.5386 3.1692 11.754 3.72305C11.9694 4.24613 12.6156 4.70766 12.6156 5.29228ZM11.1385 5.29227C11.1385 3.50765 9.72311 2.09227 7.9385 2.09227C6.15388 2.09227 4.7385 3.50765 4.7385 5.29227C4.7385 7.07689 6.15388 8.49227 7.9385 8.49227C9.72311 8.49227 11.1385 7.07689 11.1385 5.29227Z" fill="#F7A452"/>
</svg>
