<svg width="12" height="12" viewBox="0 0 12 12" fill="none" xmlns="http://www.w3.org/2000/svg">
<path fill-rule="evenodd" clip-rule="evenodd" d="M6.00001 0.461548C2.95386 0.461548 0.461548 2.95386 0.461548 6.00001C0.461548 9.04616 2.95386 11.5385 6.00001 11.5385C9.04616 11.5385 11.5385 9.04616 11.5385 6.00001C11.5385 2.95386 9.04616 0.461548 6.00001 0.461548ZM5.9999 10.0615C3.76144 10.0615 1.93837 8.23846 1.93837 6C1.93837 3.76154 3.76144 1.93846 5.9999 1.93846C8.23837 1.93846 10.0614 3.76154 10.0614 6C10.0614 8.23846 8.23837 10.0615 5.9999 10.0615ZM6.00006 8.58461C7.42751 8.58461 8.58468 7.42744 8.58468 6C8.58468 4.57255 7.42751 3.41538 6.00006 3.41538C4.57262 3.41538 3.41545 4.57255 3.41545 6C3.41545 7.42744 4.57262 8.58461 6.00006 8.58461Z" fill="#1C8EFF"/>
</svg>
