<svg width="16" height="16" viewBox="0 0 16 16" fill="none" xmlns="http://www.w3.org/2000/svg">
<path fill-rule="evenodd" clip-rule="evenodd" d="M8.00009 0.615356C3.93856 0.615356 0.615479 3.93843 0.615479 7.99997C0.615479 12.0615 3.93856 15.3846 8.00009 15.3846C12.0616 15.3846 15.3847 12.0615 15.3847 7.99997C15.3847 3.93843 12.0616 0.615356 8.00009 0.615356ZM8.00002 13.4154C5.0154 13.4154 2.58463 10.9846 2.58463 7.99997C2.58463 5.01535 5.0154 2.58458 8.00002 2.58458C10.9846 2.58458 13.4154 5.01535 13.4154 7.99997C13.4154 10.9846 10.9846 13.4154 8.00002 13.4154ZM8.00013 11.4461C9.90339 11.4461 11.4463 9.90322 11.4463 7.99996C11.4463 6.0967 9.90339 4.55381 8.00013 4.55381C6.09687 4.55381 4.55398 6.0967 4.55398 7.99996C4.55398 9.90322 6.09687 11.4461 8.00013 11.4461Z" fill="#1C8EFF"/>
</svg>
