<svg width="16" height="17" viewBox="0 0 16 17" fill="none" xmlns="http://www.w3.org/2000/svg">
<path fill-rule="evenodd" clip-rule="evenodd" d="M3.80777 7.31539L7.96161 3.10001C8.14623 2.91539 8.45392 2.91539 8.63854 3.10001L12.7924 7.31539C12.977 7.50001 12.977 7.8077 12.7924 7.99232L12.1155 8.66924C11.9308 8.85386 11.6232 8.85386 11.4385 8.66924L8.63854 5.77693C8.45392 5.59232 8.14623 5.59232 7.96161 5.77693L5.16161 8.63847C4.977 8.82309 4.66931 8.82309 4.48469 8.63847L3.80777 7.96155C3.65392 7.77693 3.65392 7.50001 3.80777 7.31539ZM3.80777 12.8846L7.96161 8.66925C8.14623 8.48463 8.45392 8.48463 8.63854 8.66925L12.7924 12.8846C12.977 13.0692 12.977 13.3769 12.7924 13.5616L12.1155 14.2385C11.9308 14.4231 11.6232 14.4231 11.4385 14.2385L8.63854 11.3462C8.45392 11.1616 8.14623 11.1616 7.96161 11.3462L5.16161 14.2077C4.977 14.3923 4.66931 14.3923 4.48469 14.2077L3.80777 13.5308C3.65392 13.3462 3.65392 13.0385 3.80777 12.8846Z" fill="#4BCA8D"/>
</svg>
