<svg width="16" height="12" viewBox="0 0 16 12" fill="none" xmlns="http://www.w3.org/2000/svg">
<path fill-rule="evenodd" clip-rule="evenodd" d="M10.7692 0.57692C10.2462 0.57692 9.75385 0.638458 9.29231 0.792304C9.84615 1.25384 10.3385 1.80769 10.7385 2.42307H10.7692C12.6462 2.42307 14.1538 3.93077 14.1538 5.80769C14.1538 7.68461 12.6462 9.1923 10.7692 9.1923C10.3077 9.1923 9.84615 9.1 9.44615 8.91538C9.69231 8.57692 9.90769 8.20769 10.0615 7.83846C10.1231 7.68461 10.1846 7.56153 10.2154 7.40769C10.3692 6.91538 10.4615 6.36153 10.4615 5.80769C10.4615 2.91538 8.12308 0.57692 5.23077 0.57692C2.33846 0.57692 0 2.91538 0 5.80769C0 8.7 2.33846 11.0385 5.23077 11.0385C5.75385 11.0385 6.24615 10.9769 6.70769 10.8231C6.15385 10.3615 5.66154 9.80769 5.26154 9.1923H5.23077C3.35385 9.1923 1.84615 7.68461 1.84615 5.80769C1.84615 3.93077 3.35385 2.42307 5.23077 2.42307C5.69231 2.42307 6.15385 2.51538 6.58462 2.7C5.93846 3.56153 5.53846 4.63846 5.53846 5.80769C5.53846 8.7 7.87692 11.0385 10.7692 11.0385C13.6615 11.0385 16 8.7 16 5.80769C16 2.91538 13.6615 0.57692 10.7692 0.57692Z" fill="#1C8EFF"/>
</svg>
